<svg xmlns="http://www.w3.org/2000/svg" viewBox="0 0 200 150" width="400" height="300"><defs><clipPath id="c"><rect width="200" height="150"/></clipPath></defs><g clip-path="url(#c)"><rect width="200" height="150" fill="#A8E6F2"/><circle cx="160" cy="30" r="14" fill="#FFF6B8" stroke="#2A1B3D" stroke-width="2.5" stroke-linejoin="round" stroke-linecap="round"/><path d="M-10 100 Q40 70 90 92 T210 84 V160 H-10Z" fill="#7FA8F5" stroke="#2A1B3D" stroke-width="2.5" stroke-linejoin="round" stroke-linecap="round"/><path d="M-10 118 Q60 96 120 116 T210 110 V160 H-10Z" fill="#4C7FE6" stroke="#2A1B3D" stroke-width="2.5" stroke-linejoin="round" stroke-linecap="round"/><path d="M15 128 l3 -9 l2 9 l3 -11 l2 11" fill="none" stroke="#3355B8" stroke-width="2.5" stroke-linecap="round"/><path d="M65 138 l3 -9 l2 9 l3 -11 l2 11" fill="none" stroke="#3355B8" stroke-width="2.5" stroke-linecap="round"/><path d="M145 130 l3 -9 l2 9 l3 -11 l2 11" fill="none" stroke="#3355B8" stroke-width="2.5" stroke-linecap="round"/><path d="M180 142 l3 -9 l2 9 l3 -11 l2 11" fill="none" stroke="#3355B8" stroke-width="2.5" stroke-linecap="round"/><ellipse cx="100" cy="136" rx="32" ry="7.04" fill="#2A1B3D" opacity="0.2"/><path d="M100 132 V92" fill="none" stroke="#3E8E4E" stroke-width="6" stroke-linecap="round"/><path d="M100 116 q-22 -2 -26 -16 q18 -4 26 12Z" fill="#6FC27A" stroke="#2A1B3D" stroke-width="4" stroke-linejoin="round" stroke-linecap="round"/><path d="M70 60 Q70 30 100 30 Q130 30 130 60 L138 84 Q120 78 112 88 Q100 78 88 88 Q80 78 62 84Z" fill="#8EA4FF" stroke="#2A1B3D" stroke-width="4" stroke-linejoin="round" stroke-linecap="round"/><circle cx="90" cy="60" r="6" fill="#FFFFFF" stroke="#2A1B3D" stroke-width="2.5" stroke-linejoin="round" stroke-linecap="round"/><circle cx="91.5" cy="60.5" r="2.7" fill="#2A1B3D" /><circle cx="90.3" cy="58.8" r="0.8999999999999999" fill="#FFFFFF" /><circle cx="110" cy="60" r="6" fill="#FFFFFF" stroke="#2A1B3D" stroke-width="2.5" stroke-linejoin="round" stroke-linecap="round"/><circle cx="111.5" cy="60.5" r="2.7" fill="#2A1B3D" /><circle cx="110.3" cy="58.8" r="0.8999999999999999" fill="#FFFFFF" /><path d="M94 70 Q100 74.8 106 70" fill="none" stroke="#2A1B3D" stroke-width="2.5" stroke-linejoin="round" stroke-linecap="round"/><ellipse cx="82" cy="68" rx="5" ry="3" fill="#FF7FB0" opacity="0.6"/><ellipse cx="118" cy="68" rx="5" ry="3" fill="#FF7FB0" opacity="0.6"/><rect x="118" y="98" width="26" height="20" rx="5" fill="#FFFFFF" stroke="#2A1B3D" stroke-width="4" stroke-linejoin="round" stroke-linecap="round"/><path d="M131 102 v12 M125 108 h12" fill="none" stroke="#F2545B" stroke-width="4" stroke-linecap="round"/></g></svg>
