<svg xmlns="http://www.w3.org/2000/svg" viewBox="0 0 200 150" width="400" height="300"><defs><clipPath id="c"><rect width="200" height="150"/></clipPath></defs><g clip-path="url(#c)"><rect width="200" height="150" fill="#FFE9A8"/><circle cx="165" cy="28" r="13" fill="#FFFFFF" stroke="#2A1B3D" stroke-width="2.5" stroke-linejoin="round" stroke-linecap="round"/><path d="M-10 96 H210 V160 H-10Z" fill="#F5C94A" stroke="#2A1B3D" stroke-width="2.5" stroke-linejoin="round" stroke-linecap="round"/><path d="M8 96 V78" fill="none" stroke="#6FAF3A" stroke-width="3" stroke-linecap="round"/><ellipse cx="11" cy="80" rx="3" ry="7" fill="#FFE066" stroke="#2A1B3D" stroke-width="2.5" stroke-linejoin="round" stroke-linecap="round"/><path d="M30 96 V78" fill="none" stroke="#6FAF3A" stroke-width="3" stroke-linecap="round"/><ellipse cx="33" cy="80" rx="3" ry="7" fill="#FFE066" stroke="#2A1B3D" stroke-width="2.5" stroke-linejoin="round" stroke-linecap="round"/><path d="M52 96 V78" fill="none" stroke="#6FAF3A" stroke-width="3" stroke-linecap="round"/><ellipse cx="55" cy="80" rx="3" ry="7" fill="#FFE066" stroke="#2A1B3D" stroke-width="2.5" stroke-linejoin="round" stroke-linecap="round"/><path d="M74 96 V78" fill="none" stroke="#6FAF3A" stroke-width="3" stroke-linecap="round"/><ellipse cx="77" cy="80" rx="3" ry="7" fill="#FFE066" stroke="#2A1B3D" stroke-width="2.5" stroke-linejoin="round" stroke-linecap="round"/><path d="M96 96 V78" fill="none" stroke="#6FAF3A" stroke-width="3" stroke-linecap="round"/><ellipse cx="99" cy="80" rx="3" ry="7" fill="#FFE066" stroke="#2A1B3D" stroke-width="2.5" stroke-linejoin="round" stroke-linecap="round"/><path d="M118 96 V78" fill="none" stroke="#6FAF3A" stroke-width="3" stroke-linecap="round"/><ellipse cx="121" cy="80" rx="3" ry="7" fill="#FFE066" stroke="#2A1B3D" stroke-width="2.5" stroke-linejoin="round" stroke-linecap="round"/><path d="M140 96 V78" fill="none" stroke="#6FAF3A" stroke-width="3" stroke-linecap="round"/><ellipse cx="143" cy="80" rx="3" ry="7" fill="#FFE066" stroke="#2A1B3D" stroke-width="2.5" stroke-linejoin="round" stroke-linecap="round"/><path d="M162 96 V78" fill="none" stroke="#6FAF3A" stroke-width="3" stroke-linecap="round"/><ellipse cx="165" cy="80" rx="3" ry="7" fill="#FFE066" stroke="#2A1B3D" stroke-width="2.5" stroke-linejoin="round" stroke-linecap="round"/><path d="M184 96 V78" fill="none" stroke="#6FAF3A" stroke-width="3" stroke-linecap="round"/><ellipse cx="187" cy="80" rx="3" ry="7" fill="#FFE066" stroke="#2A1B3D" stroke-width="2.5" stroke-linejoin="round" stroke-linecap="round"/><path d="M-10 108 Q100 102 210 108" fill="none" stroke="#C9861A" stroke-width="3"/><path d="M-10 122 Q100 116 210 122" fill="none" stroke="#C9861A" stroke-width="3"/><path d="M-10 136 Q100 130 210 136" fill="none" stroke="#C9861A" stroke-width="3"/><path d="M-10 150 Q100 144 210 150" fill="none" stroke="#C9861A" stroke-width="3"/><ellipse cx="100" cy="140" rx="60" ry="13.2" fill="#2A1B3D" opacity="0.2"/><rect x="50" y="110" width="100" height="16" rx="4" fill="#9C6B3F" stroke="#2A1B3D" stroke-width="4" stroke-linejoin="round" stroke-linecap="round"/><circle cx="62" cy="130" r="10" fill="#6B4A2C" stroke="#2A1B3D" stroke-width="4" stroke-linejoin="round" stroke-linecap="round"/><circle cx="138" cy="130" r="10" fill="#6B4A2C" stroke="#2A1B3D" stroke-width="4" stroke-linejoin="round" stroke-linecap="round"/><path d="M80 112 L130 50" fill="none" stroke="#2A1B3D" stroke-width="10" stroke-linecap="round"/><path d="M80 112 L130 50" fill="none" stroke="#C98B52" stroke-width="5" stroke-linecap="round"/><ellipse cx="136" cy="42" rx="16" ry="8" fill="#8A5A33" stroke="#2A1B3D" stroke-width="4" stroke-linejoin="round" stroke-linecap="round"/><ellipse cx="150" cy="26" rx="7" ry="14" fill="#FFD64A" stroke="#2A1B3D" stroke-width="2.5" stroke-linejoin="round" stroke-linecap="round"/><path d="M30 60 q10 -6 20 0 M26 76 q10 -6 20 0" fill="none" stroke="#FFFFFF" stroke-width="3" stroke-linecap="round" opacity="0.8"/></g></svg>
