<svg xmlns="http://www.w3.org/2000/svg" viewBox="0 0 200 150" width="400" height="300"><defs><clipPath id="c"><rect width="200" height="150"/></clipPath></defs><g clip-path="url(#c)"><rect width="200" height="150" fill="#A8E6F2"/><circle cx="160" cy="30" r="14" fill="#FFF6B8" stroke="#2A1B3D" stroke-width="2.5" stroke-linejoin="round" stroke-linecap="round"/><path d="M-10 100 Q40 70 90 92 T210 84 V160 H-10Z" fill="#7FA8F5" stroke="#2A1B3D" stroke-width="2.5" stroke-linejoin="round" stroke-linecap="round"/><path d="M-10 118 Q60 96 120 116 T210 110 V160 H-10Z" fill="#4C7FE6" stroke="#2A1B3D" stroke-width="2.5" stroke-linejoin="round" stroke-linecap="round"/><path d="M15 128 l3 -9 l2 9 l3 -11 l2 11" fill="none" stroke="#3355B8" stroke-width="2.5" stroke-linecap="round"/><path d="M65 138 l3 -9 l2 9 l3 -11 l2 11" fill="none" stroke="#3355B8" stroke-width="2.5" stroke-linecap="round"/><path d="M145 130 l3 -9 l2 9 l3 -11 l2 11" fill="none" stroke="#3355B8" stroke-width="2.5" stroke-linecap="round"/><path d="M180 142 l3 -9 l2 9 l3 -11 l2 11" fill="none" stroke="#3355B8" stroke-width="2.5" stroke-linecap="round"/><ellipse cx="100" cy="134" rx="46" ry="10.12" fill="#2A1B3D" opacity="0.2"/><path d="M62 132 Q58 92 78 82 L122 82 Q142 92 138 132Z" fill="#E8EEF5" stroke="#2A1B3D" stroke-width="4" stroke-linejoin="round" stroke-linecap="round"/><path d="M60 64 q-18 -4 -16 20 q10 6 20 -2Z" fill="#9AA6B8" stroke="#2A1B3D" stroke-width="4" stroke-linejoin="round" stroke-linecap="round"/><path d="M140 64 q18 -4 16 20 q-10 6 -20 -2Z" fill="#9AA6B8" stroke="#2A1B3D" stroke-width="4" stroke-linejoin="round" stroke-linecap="round"/><circle cx="100" cy="66" r="32" fill="#F4F7FB" stroke="#2A1B3D" stroke-width="4" stroke-linejoin="round" stroke-linecap="round"/><ellipse cx="100" cy="82" rx="14" ry="10" fill="#FFFFFF" stroke="#2A1B3D" stroke-width="4" stroke-linejoin="round" stroke-linecap="round"/><ellipse cx="100" cy="76" rx="6" ry="4" fill="#2A1B3D" /><path d="M68 58 H132 L128 70 Q116 76 104 68 H96 Q84 76 72 70Z" fill="#2A1B3D" /><path d="M76 60 l10 0" fill="none" stroke="#FFFFFF" stroke-width="2.5" stroke-linecap="round"/><path d="M92 88 Q100 94.4 108 88" fill="none" stroke="#2A1B3D" stroke-width="2.5" stroke-linejoin="round" stroke-linecap="round"/><ellipse cx="84" cy="44" rx="8" ry="4" fill="#FFFFFF" opacity="0.45" transform="rotate(-25 84 44)"/></g></svg>
