<svg xmlns="http://www.w3.org/2000/svg" viewBox="0 0 200 150" width="400" height="300"><defs><clipPath id="c"><rect width="200" height="150"/></clipPath></defs><g clip-path="url(#c)"><rect width="200" height="150" fill="#FFE9A8"/><circle cx="165" cy="28" r="13" fill="#FFFFFF" stroke="#2A1B3D" stroke-width="2.5" stroke-linejoin="round" stroke-linecap="round"/><path d="M-10 96 H210 V160 H-10Z" fill="#F5C94A" stroke="#2A1B3D" stroke-width="2.5" stroke-linejoin="round" stroke-linecap="round"/><path d="M8 96 V78" fill="none" stroke="#6FAF3A" stroke-width="3" stroke-linecap="round"/><ellipse cx="11" cy="80" rx="3" ry="7" fill="#FFE066" stroke="#2A1B3D" stroke-width="2.5" stroke-linejoin="round" stroke-linecap="round"/><path d="M30 96 V78" fill="none" stroke="#6FAF3A" stroke-width="3" stroke-linecap="round"/><ellipse cx="33" cy="80" rx="3" ry="7" fill="#FFE066" stroke="#2A1B3D" stroke-width="2.5" stroke-linejoin="round" stroke-linecap="round"/><path d="M52 96 V78" fill="none" stroke="#6FAF3A" stroke-width="3" stroke-linecap="round"/><ellipse cx="55" cy="80" rx="3" ry="7" fill="#FFE066" stroke="#2A1B3D" stroke-width="2.5" stroke-linejoin="round" stroke-linecap="round"/><path d="M74 96 V78" fill="none" stroke="#6FAF3A" stroke-width="3" stroke-linecap="round"/><ellipse cx="77" cy="80" rx="3" ry="7" fill="#FFE066" stroke="#2A1B3D" stroke-width="2.5" stroke-linejoin="round" stroke-linecap="round"/><path d="M96 96 V78" fill="none" stroke="#6FAF3A" stroke-width="3" stroke-linecap="round"/><ellipse cx="99" cy="80" rx="3" ry="7" fill="#FFE066" stroke="#2A1B3D" stroke-width="2.5" stroke-linejoin="round" stroke-linecap="round"/><path d="M118 96 V78" fill="none" stroke="#6FAF3A" stroke-width="3" stroke-linecap="round"/><ellipse cx="121" cy="80" rx="3" ry="7" fill="#FFE066" stroke="#2A1B3D" stroke-width="2.5" stroke-linejoin="round" stroke-linecap="round"/><path d="M140 96 V78" fill="none" stroke="#6FAF3A" stroke-width="3" stroke-linecap="round"/><ellipse cx="143" cy="80" rx="3" ry="7" fill="#FFE066" stroke="#2A1B3D" stroke-width="2.5" stroke-linejoin="round" stroke-linecap="round"/><path d="M162 96 V78" fill="none" stroke="#6FAF3A" stroke-width="3" stroke-linecap="round"/><ellipse cx="165" cy="80" rx="3" ry="7" fill="#FFE066" stroke="#2A1B3D" stroke-width="2.5" stroke-linejoin="round" stroke-linecap="round"/><path d="M184 96 V78" fill="none" stroke="#6FAF3A" stroke-width="3" stroke-linecap="round"/><ellipse cx="187" cy="80" rx="3" ry="7" fill="#FFE066" stroke="#2A1B3D" stroke-width="2.5" stroke-linejoin="round" stroke-linecap="round"/><path d="M-10 108 Q100 102 210 108" fill="none" stroke="#C9861A" stroke-width="3"/><path d="M-10 122 Q100 116 210 122" fill="none" stroke="#C9861A" stroke-width="3"/><path d="M-10 136 Q100 130 210 136" fill="none" stroke="#C9861A" stroke-width="3"/><path d="M-10 150 Q100 144 210 150" fill="none" stroke="#C9861A" stroke-width="3"/><ellipse cx="96" cy="138" rx="40" ry="8.8" fill="#2A1B3D" opacity="0.2"/><path d="M70 136 Q68 100 80 92 L112 92 Q124 100 122 136Z" fill="#3E5A8C" stroke="#2A1B3D" stroke-width="4" stroke-linejoin="round" stroke-linecap="round"/><path d="M74 110 h44" fill="none" stroke="#F2545B" stroke-width="6"/><ellipse cx="96" cy="62" rx="22" ry="32" fill="#FFD64A" stroke="#2A1B3D" stroke-width="4" stroke-linejoin="round" stroke-linecap="round"/><circle cx="90" cy="40" r="4" fill="#FFE88A" stroke="#2A1B3D" stroke-width="2.5" stroke-linejoin="round" stroke-linecap="round"/><circle cx="102" cy="40" r="4" fill="#FFE88A" stroke="#2A1B3D" stroke-width="2.5" stroke-linejoin="round" stroke-linecap="round"/><circle cx="90" cy="50" r="4" fill="#FFE88A" stroke="#2A1B3D" stroke-width="2.5" stroke-linejoin="round" stroke-linecap="round"/><circle cx="102" cy="50" r="4" fill="#FFE88A" stroke="#2A1B3D" stroke-width="2.5" stroke-linejoin="round" stroke-linecap="round"/><circle cx="90" cy="60" r="4" fill="#FFE88A" stroke="#2A1B3D" stroke-width="2.5" stroke-linejoin="round" stroke-linecap="round"/><circle cx="102" cy="60" r="4" fill="#FFE88A" stroke="#2A1B3D" stroke-width="2.5" stroke-linejoin="round" stroke-linecap="round"/><rect x="72" y="58" width="48" height="8" rx="3" fill="#F2545B" stroke="#2A1B3D" stroke-width="4" stroke-linejoin="round" stroke-linecap="round"/><path d="M72 62 l-16 -6 M72 62 l-14 6" fill="none" stroke="#F2545B" stroke-width="5" stroke-linecap="round"/><path d="M86 76 l8 -3 M106 76 l-8 -3" fill="none" stroke="#2A1B3D" stroke-width="2.5" stroke-linejoin="round" stroke-linecap="round"/><circle cx="90" cy="78" r="2.5" fill="#2A1B3D" /><circle cx="102" cy="78" r="2.5" fill="#2A1B3D" /><path d="M126 128 L170 40" fill="none" stroke="#2A1B3D" stroke-width="9" stroke-linecap="round"/><path d="M130 120 L170 40" fill="none" stroke="#EEF3FA" stroke-width="4" stroke-linecap="round"/><rect x="122" y="116" width="16" height="6" rx="2" fill="#F2545B" stroke="#2A1B3D" stroke-width="2.5" stroke-linejoin="round" stroke-linecap="round"/></g></svg>
