<svg xmlns="http://www.w3.org/2000/svg" viewBox="0 0 200 150" width="400" height="300"><defs><clipPath id="c"><rect width="200" height="150"/></clipPath></defs><g clip-path="url(#c)"><rect width="200" height="150" fill="#FFE9A8"/><circle cx="165" cy="28" r="13" fill="#FFFFFF" stroke="#2A1B3D" stroke-width="2.5" stroke-linejoin="round" stroke-linecap="round"/><path d="M-10 96 H210 V160 H-10Z" fill="#F5C94A" stroke="#2A1B3D" stroke-width="2.5" stroke-linejoin="round" stroke-linecap="round"/><path d="M8 96 V78" fill="none" stroke="#6FAF3A" stroke-width="3" stroke-linecap="round"/><ellipse cx="11" cy="80" rx="3" ry="7" fill="#FFE066" stroke="#2A1B3D" stroke-width="2.5" stroke-linejoin="round" stroke-linecap="round"/><path d="M30 96 V78" fill="none" stroke="#6FAF3A" stroke-width="3" stroke-linecap="round"/><ellipse cx="33" cy="80" rx="3" ry="7" fill="#FFE066" stroke="#2A1B3D" stroke-width="2.5" stroke-linejoin="round" stroke-linecap="round"/><path d="M52 96 V78" fill="none" stroke="#6FAF3A" stroke-width="3" stroke-linecap="round"/><ellipse cx="55" cy="80" rx="3" ry="7" fill="#FFE066" stroke="#2A1B3D" stroke-width="2.5" stroke-linejoin="round" stroke-linecap="round"/><path d="M74 96 V78" fill="none" stroke="#6FAF3A" stroke-width="3" stroke-linecap="round"/><ellipse cx="77" cy="80" rx="3" ry="7" fill="#FFE066" stroke="#2A1B3D" stroke-width="2.5" stroke-linejoin="round" stroke-linecap="round"/><path d="M96 96 V78" fill="none" stroke="#6FAF3A" stroke-width="3" stroke-linecap="round"/><ellipse cx="99" cy="80" rx="3" ry="7" fill="#FFE066" stroke="#2A1B3D" stroke-width="2.5" stroke-linejoin="round" stroke-linecap="round"/><path d="M118 96 V78" fill="none" stroke="#6FAF3A" stroke-width="3" stroke-linecap="round"/><ellipse cx="121" cy="80" rx="3" ry="7" fill="#FFE066" stroke="#2A1B3D" stroke-width="2.5" stroke-linejoin="round" stroke-linecap="round"/><path d="M140 96 V78" fill="none" stroke="#6FAF3A" stroke-width="3" stroke-linecap="round"/><ellipse cx="143" cy="80" rx="3" ry="7" fill="#FFE066" stroke="#2A1B3D" stroke-width="2.5" stroke-linejoin="round" stroke-linecap="round"/><path d="M162 96 V78" fill="none" stroke="#6FAF3A" stroke-width="3" stroke-linecap="round"/><ellipse cx="165" cy="80" rx="3" ry="7" fill="#FFE066" stroke="#2A1B3D" stroke-width="2.5" stroke-linejoin="round" stroke-linecap="round"/><path d="M184 96 V78" fill="none" stroke="#6FAF3A" stroke-width="3" stroke-linecap="round"/><ellipse cx="187" cy="80" rx="3" ry="7" fill="#FFE066" stroke="#2A1B3D" stroke-width="2.5" stroke-linejoin="round" stroke-linecap="round"/><path d="M-10 108 Q100 102 210 108" fill="none" stroke="#C9861A" stroke-width="3"/><path d="M-10 122 Q100 116 210 122" fill="none" stroke="#C9861A" stroke-width="3"/><path d="M-10 136 Q100 130 210 136" fill="none" stroke="#C9861A" stroke-width="3"/><path d="M-10 150 Q100 144 210 150" fill="none" stroke="#C9861A" stroke-width="3"/><ellipse cx="100" cy="146" rx="70" ry="15.4" fill="#2A1B3D" opacity="0.2"/><path d="M40 150 Q30 60 100 22 Q170 60 160 150Z" fill="#FFD64A" stroke="#2A1B3D" stroke-width="4" stroke-linejoin="round" stroke-linecap="round"/><circle cx="70" cy="44" r="6" fill="#FFE88A" stroke="#2A1B3D" stroke-width="2.5" stroke-linejoin="round" stroke-linecap="round"/><circle cx="90" cy="44" r="6" fill="#FFE88A" stroke="#2A1B3D" stroke-width="2.5" stroke-linejoin="round" stroke-linecap="round"/><circle cx="110" cy="44" r="6" fill="#FFE88A" stroke="#2A1B3D" stroke-width="2.5" stroke-linejoin="round" stroke-linecap="round"/><circle cx="130" cy="44" r="6" fill="#FFE88A" stroke="#2A1B3D" stroke-width="2.5" stroke-linejoin="round" stroke-linecap="round"/><circle cx="80" cy="58" r="6" fill="#FFE88A" stroke="#2A1B3D" stroke-width="2.5" stroke-linejoin="round" stroke-linecap="round"/><circle cx="100" cy="58" r="6" fill="#FFE88A" stroke="#2A1B3D" stroke-width="2.5" stroke-linejoin="round" stroke-linecap="round"/><circle cx="120" cy="58" r="6" fill="#FFE88A" stroke="#2A1B3D" stroke-width="2.5" stroke-linejoin="round" stroke-linecap="round"/><circle cx="140" cy="58" r="6" fill="#FFE88A" stroke="#2A1B3D" stroke-width="2.5" stroke-linejoin="round" stroke-linecap="round"/><circle cx="70" cy="72" r="6" fill="#FFE88A" stroke="#2A1B3D" stroke-width="2.5" stroke-linejoin="round" stroke-linecap="round"/><circle cx="90" cy="72" r="6" fill="#FFE88A" stroke="#2A1B3D" stroke-width="2.5" stroke-linejoin="round" stroke-linecap="round"/><circle cx="110" cy="72" r="6" fill="#FFE88A" stroke="#2A1B3D" stroke-width="2.5" stroke-linejoin="round" stroke-linecap="round"/><circle cx="130" cy="72" r="6" fill="#FFE88A" stroke="#2A1B3D" stroke-width="2.5" stroke-linejoin="round" stroke-linecap="round"/><circle cx="80" cy="86" r="6" fill="#FFE88A" stroke="#2A1B3D" stroke-width="2.5" stroke-linejoin="round" stroke-linecap="round"/><circle cx="100" cy="86" r="6" fill="#FFE88A" stroke="#2A1B3D" stroke-width="2.5" stroke-linejoin="round" stroke-linecap="round"/><circle cx="120" cy="86" r="6" fill="#FFE88A" stroke="#2A1B3D" stroke-width="2.5" stroke-linejoin="round" stroke-linecap="round"/><circle cx="140" cy="86" r="6" fill="#FFE88A" stroke="#2A1B3D" stroke-width="2.5" stroke-linejoin="round" stroke-linecap="round"/><circle cx="70" cy="100" r="6" fill="#FFE88A" stroke="#2A1B3D" stroke-width="2.5" stroke-linejoin="round" stroke-linecap="round"/><circle cx="90" cy="100" r="6" fill="#FFE88A" stroke="#2A1B3D" stroke-width="2.5" stroke-linejoin="round" stroke-linecap="round"/><circle cx="110" cy="100" r="6" fill="#FFE88A" stroke="#2A1B3D" stroke-width="2.5" stroke-linejoin="round" stroke-linecap="round"/><circle cx="130" cy="100" r="6" fill="#FFE88A" stroke="#2A1B3D" stroke-width="2.5" stroke-linejoin="round" stroke-linecap="round"/><path d="M40 150 Q20 100 44 70 M160 150 Q180 100 156 70" fill="#7BB33A" stroke="#2A1B3D" stroke-width="4" stroke-linejoin="round" stroke-linecap="round"/><path d="M60 108 Q100 136 140 108 Z" fill="#2A1B3D" /><polygon points="70,110 78,120 86,114 94,124 102,116 110,124 118,114 126,120 132,110" fill="#FFFFFF" stroke="#2A1B3D" stroke-width="2.5" stroke-linejoin="round" stroke-linecap="round"/><path d="M72 84 l16 6 M128 84 l-16 6" fill="none" stroke="#2A1B3D" stroke-width="6" stroke-linecap="round"/><circle cx="82" cy="94" r="6" fill="#F2545B" stroke="#2A1B3D" stroke-width="2.5" stroke-linejoin="round" stroke-linecap="round"/><circle cx="118" cy="94" r="6" fill="#F2545B" stroke="#2A1B3D" stroke-width="2.5" stroke-linejoin="round" stroke-linecap="round"/></g></svg>
