<svg xmlns="http://www.w3.org/2000/svg" viewBox="0 0 200 150" width="400" height="300"><defs><clipPath id="c"><rect width="200" height="150"/></clipPath></defs><g clip-path="url(#c)"><rect width="200" height="150" fill="#FFE9A8"/><circle cx="165" cy="28" r="13" fill="#FFFFFF" stroke="#2A1B3D" stroke-width="2.5" stroke-linejoin="round" stroke-linecap="round"/><path d="M-10 96 H210 V160 H-10Z" fill="#F5C94A" stroke="#2A1B3D" stroke-width="2.5" stroke-linejoin="round" stroke-linecap="round"/><path d="M8 96 V78" fill="none" stroke="#6FAF3A" stroke-width="3" stroke-linecap="round"/><ellipse cx="11" cy="80" rx="3" ry="7" fill="#FFE066" stroke="#2A1B3D" stroke-width="2.5" stroke-linejoin="round" stroke-linecap="round"/><path d="M30 96 V78" fill="none" stroke="#6FAF3A" stroke-width="3" stroke-linecap="round"/><ellipse cx="33" cy="80" rx="3" ry="7" fill="#FFE066" stroke="#2A1B3D" stroke-width="2.5" stroke-linejoin="round" stroke-linecap="round"/><path d="M52 96 V78" fill="none" stroke="#6FAF3A" stroke-width="3" stroke-linecap="round"/><ellipse cx="55" cy="80" rx="3" ry="7" fill="#FFE066" stroke="#2A1B3D" stroke-width="2.5" stroke-linejoin="round" stroke-linecap="round"/><path d="M74 96 V78" fill="none" stroke="#6FAF3A" stroke-width="3" stroke-linecap="round"/><ellipse cx="77" cy="80" rx="3" ry="7" fill="#FFE066" stroke="#2A1B3D" stroke-width="2.5" stroke-linejoin="round" stroke-linecap="round"/><path d="M96 96 V78" fill="none" stroke="#6FAF3A" stroke-width="3" stroke-linecap="round"/><ellipse cx="99" cy="80" rx="3" ry="7" fill="#FFE066" stroke="#2A1B3D" stroke-width="2.5" stroke-linejoin="round" stroke-linecap="round"/><path d="M118 96 V78" fill="none" stroke="#6FAF3A" stroke-width="3" stroke-linecap="round"/><ellipse cx="121" cy="80" rx="3" ry="7" fill="#FFE066" stroke="#2A1B3D" stroke-width="2.5" stroke-linejoin="round" stroke-linecap="round"/><path d="M140 96 V78" fill="none" stroke="#6FAF3A" stroke-width="3" stroke-linecap="round"/><ellipse cx="143" cy="80" rx="3" ry="7" fill="#FFE066" stroke="#2A1B3D" stroke-width="2.5" stroke-linejoin="round" stroke-linecap="round"/><path d="M162 96 V78" fill="none" stroke="#6FAF3A" stroke-width="3" stroke-linecap="round"/><ellipse cx="165" cy="80" rx="3" ry="7" fill="#FFE066" stroke="#2A1B3D" stroke-width="2.5" stroke-linejoin="round" stroke-linecap="round"/><path d="M184 96 V78" fill="none" stroke="#6FAF3A" stroke-width="3" stroke-linecap="round"/><ellipse cx="187" cy="80" rx="3" ry="7" fill="#FFE066" stroke="#2A1B3D" stroke-width="2.5" stroke-linejoin="round" stroke-linecap="round"/><path d="M-10 108 Q100 102 210 108" fill="none" stroke="#C9861A" stroke-width="3"/><path d="M-10 122 Q100 116 210 122" fill="none" stroke="#C9861A" stroke-width="3"/><path d="M-10 136 Q100 130 210 136" fill="none" stroke="#C9861A" stroke-width="3"/><path d="M-10 150 Q100 144 210 150" fill="none" stroke="#C9861A" stroke-width="3"/><ellipse cx="100" cy="138" rx="44" ry="9.68" fill="#2A1B3D" opacity="0.2"/><path d="M58 136 Q54 96 72 86 L128 86 Q146 96 142 136Z" fill="#7BB33A" stroke="#2A1B3D" stroke-width="4" stroke-linejoin="round" stroke-linecap="round"/><path d="M60 136 Q72 104 100 96 Q128 104 140 136" fill="none" stroke="#5E8E26" stroke-width="4"/><ellipse cx="100" cy="64" rx="24" ry="34" fill="#FFD64A" stroke="#2A1B3D" stroke-width="4" stroke-linejoin="round" stroke-linecap="round"/><circle cx="88" cy="44" r="4.5" fill="#FFE88A" stroke="#2A1B3D" stroke-width="2.5" stroke-linejoin="round" stroke-linecap="round"/><circle cx="100" cy="44" r="4.5" fill="#FFE88A" stroke="#2A1B3D" stroke-width="2.5" stroke-linejoin="round" stroke-linecap="round"/><circle cx="112" cy="44" r="4.5" fill="#FFE88A" stroke="#2A1B3D" stroke-width="2.5" stroke-linejoin="round" stroke-linecap="round"/><circle cx="88" cy="55" r="4.5" fill="#FFE88A" stroke="#2A1B3D" stroke-width="2.5" stroke-linejoin="round" stroke-linecap="round"/><circle cx="100" cy="55" r="4.5" fill="#FFE88A" stroke="#2A1B3D" stroke-width="2.5" stroke-linejoin="round" stroke-linecap="round"/><circle cx="112" cy="55" r="4.5" fill="#FFE88A" stroke="#2A1B3D" stroke-width="2.5" stroke-linejoin="round" stroke-linecap="round"/><circle cx="88" cy="66" r="4.5" fill="#FFE88A" stroke="#2A1B3D" stroke-width="2.5" stroke-linejoin="round" stroke-linecap="round"/><circle cx="100" cy="66" r="4.5" fill="#FFE88A" stroke="#2A1B3D" stroke-width="2.5" stroke-linejoin="round" stroke-linecap="round"/><circle cx="112" cy="66" r="4.5" fill="#FFE88A" stroke="#2A1B3D" stroke-width="2.5" stroke-linejoin="round" stroke-linecap="round"/><circle cx="88" cy="77" r="4.5" fill="#FFE88A" stroke="#2A1B3D" stroke-width="2.5" stroke-linejoin="round" stroke-linecap="round"/><circle cx="100" cy="77" r="4.5" fill="#FFE88A" stroke="#2A1B3D" stroke-width="2.5" stroke-linejoin="round" stroke-linecap="round"/><circle cx="112" cy="77" r="4.5" fill="#FFE88A" stroke="#2A1B3D" stroke-width="2.5" stroke-linejoin="round" stroke-linecap="round"/><rect x="80" y="58" width="40" height="10" rx="4" fill="#2A1B3D" /><circle cx="92" cy="63" r="2.5" fill="#FFFFFF" /><circle cx="108" cy="63" r="2.5" fill="#FFFFFF" /><rect x="142" y="64" width="30" height="40" rx="8" fill="#C9D3E3" stroke="#2A1B3D" stroke-width="4" stroke-linejoin="round" stroke-linecap="round"/><path d="M157 70 v28 M146 84 h22" fill="none" stroke="#E9A92B" stroke-width="4" stroke-linecap="round"/></g></svg>
