<svg xmlns="http://www.w3.org/2000/svg" viewBox="0 0 200 150" width="400" height="300"><defs><clipPath id="c"><rect width="200" height="150"/></clipPath></defs><g clip-path="url(#c)"><rect width="200" height="150" fill="#FFE9A8"/><circle cx="165" cy="28" r="13" fill="#FFFFFF" stroke="#2A1B3D" stroke-width="2.5" stroke-linejoin="round" stroke-linecap="round"/><path d="M-10 96 H210 V160 H-10Z" fill="#F5C94A" stroke="#2A1B3D" stroke-width="2.5" stroke-linejoin="round" stroke-linecap="round"/><path d="M8 96 V78" fill="none" stroke="#6FAF3A" stroke-width="3" stroke-linecap="round"/><ellipse cx="11" cy="80" rx="3" ry="7" fill="#FFE066" stroke="#2A1B3D" stroke-width="2.5" stroke-linejoin="round" stroke-linecap="round"/><path d="M30 96 V78" fill="none" stroke="#6FAF3A" stroke-width="3" stroke-linecap="round"/><ellipse cx="33" cy="80" rx="3" ry="7" fill="#FFE066" stroke="#2A1B3D" stroke-width="2.5" stroke-linejoin="round" stroke-linecap="round"/><path d="M52 96 V78" fill="none" stroke="#6FAF3A" stroke-width="3" stroke-linecap="round"/><ellipse cx="55" cy="80" rx="3" ry="7" fill="#FFE066" stroke="#2A1B3D" stroke-width="2.5" stroke-linejoin="round" stroke-linecap="round"/><path d="M74 96 V78" fill="none" stroke="#6FAF3A" stroke-width="3" stroke-linecap="round"/><ellipse cx="77" cy="80" rx="3" ry="7" fill="#FFE066" stroke="#2A1B3D" stroke-width="2.5" stroke-linejoin="round" stroke-linecap="round"/><path d="M96 96 V78" fill="none" stroke="#6FAF3A" stroke-width="3" stroke-linecap="round"/><ellipse cx="99" cy="80" rx="3" ry="7" fill="#FFE066" stroke="#2A1B3D" stroke-width="2.5" stroke-linejoin="round" stroke-linecap="round"/><path d="M118 96 V78" fill="none" stroke="#6FAF3A" stroke-width="3" stroke-linecap="round"/><ellipse cx="121" cy="80" rx="3" ry="7" fill="#FFE066" stroke="#2A1B3D" stroke-width="2.5" stroke-linejoin="round" stroke-linecap="round"/><path d="M140 96 V78" fill="none" stroke="#6FAF3A" stroke-width="3" stroke-linecap="round"/><ellipse cx="143" cy="80" rx="3" ry="7" fill="#FFE066" stroke="#2A1B3D" stroke-width="2.5" stroke-linejoin="round" stroke-linecap="round"/><path d="M162 96 V78" fill="none" stroke="#6FAF3A" stroke-width="3" stroke-linecap="round"/><ellipse cx="165" cy="80" rx="3" ry="7" fill="#FFE066" stroke="#2A1B3D" stroke-width="2.5" stroke-linejoin="round" stroke-linecap="round"/><path d="M184 96 V78" fill="none" stroke="#6FAF3A" stroke-width="3" stroke-linecap="round"/><ellipse cx="187" cy="80" rx="3" ry="7" fill="#FFE066" stroke="#2A1B3D" stroke-width="2.5" stroke-linejoin="round" stroke-linecap="round"/><path d="M-10 108 Q100 102 210 108" fill="none" stroke="#C9861A" stroke-width="3"/><path d="M-10 122 Q100 116 210 122" fill="none" stroke="#C9861A" stroke-width="3"/><path d="M-10 136 Q100 130 210 136" fill="none" stroke="#C9861A" stroke-width="3"/><path d="M-10 150 Q100 144 210 150" fill="none" stroke="#C9861A" stroke-width="3"/><path d="M88 88 Q50 50 62 96 Z" fill="#D6F3FF" stroke="#2A1B3D" stroke-width="4" stroke-linejoin="round" stroke-linecap="round"/><path d="M112 88 Q150 50 138 96 Z" fill="#D6F3FF" stroke="#2A1B3D" stroke-width="4" stroke-linejoin="round" stroke-linecap="round"/><circle cx="88" cy="92" r="14" fill="#FFFBEA" stroke="#2A1B3D" stroke-width="4" stroke-linejoin="round" stroke-linecap="round"/><circle cx="112" cy="92" r="14" fill="#FFFBEA" stroke="#2A1B3D" stroke-width="4" stroke-linejoin="round" stroke-linecap="round"/><circle cx="100" cy="78" r="16" fill="#FFFBEA" stroke="#2A1B3D" stroke-width="4" stroke-linejoin="round" stroke-linecap="round"/><circle cx="100" cy="104" r="14" fill="#FFFBEA" stroke="#2A1B3D" stroke-width="4" stroke-linejoin="round" stroke-linecap="round"/><circle cx="100" cy="92" r="18" fill="#FFFBEA" /><circle cx="93" cy="90" r="5" fill="#FFFFFF" stroke="#2A1B3D" stroke-width="2.5" stroke-linejoin="round" stroke-linecap="round"/><circle cx="94.5" cy="90.5" r="2.25" fill="#2A1B3D" /><circle cx="93.5" cy="89" r="0.75" fill="#FFFFFF" /><circle cx="107" cy="90" r="5" fill="#FFFFFF" stroke="#2A1B3D" stroke-width="2.5" stroke-linejoin="round" stroke-linecap="round"/><circle cx="108.5" cy="90.5" r="2.25" fill="#2A1B3D" /><circle cx="107.5" cy="89" r="0.75" fill="#FFFFFF" /><path d="M96 100 Q100 103.2 104 100" fill="none" stroke="#2A1B3D" stroke-width="2.5" stroke-linejoin="round" stroke-linecap="round"/><path d="M100 118 v14" fill="none" stroke="#2A1B3D" stroke-width="2.5" stroke-linejoin="round" stroke-linecap="round"/><path d="M62 113 Q63.26 118.74 69 120 Q63.26 121.26 62 127 Q60.74 121.26 55 120 Q60.74 118.74 62 113Z" fill="#FFE066" stroke="#2A1B3D" stroke-width="2.5" stroke-linejoin="round" stroke-linecap="round"/><path d="M140 34 Q141.08 38.92 146 40 Q141.08 41.08 140 46 Q138.92 41.08 134 40 Q138.92 38.92 140 34Z" fill="#FF9EC7" stroke="#2A1B3D" stroke-width="2.5" stroke-linejoin="round" stroke-linecap="round"/><path d="M150 113 Q150.9 117.1 155 118 Q150.9 118.9 150 123 Q149.1 118.9 145 118 Q149.1 117.1 150 113Z" fill="#FFFFFF" stroke="#2A1B3D" stroke-width="2.5" stroke-linejoin="round" stroke-linecap="round"/></g></svg>
