<svg xmlns="http://www.w3.org/2000/svg" viewBox="0 0 200 150" width="400" height="300"><defs><clipPath id="c"><rect width="200" height="150"/></clipPath></defs><g clip-path="url(#c)"><rect width="200" height="150" fill="#A8E6F2"/><circle cx="160" cy="30" r="14" fill="#FFF6B8" stroke="#2A1B3D" stroke-width="2.5" stroke-linejoin="round" stroke-linecap="round"/><path d="M-10 100 Q40 70 90 92 T210 84 V160 H-10Z" fill="#7FA8F5" stroke="#2A1B3D" stroke-width="2.5" stroke-linejoin="round" stroke-linecap="round"/><path d="M-10 118 Q60 96 120 116 T210 110 V160 H-10Z" fill="#4C7FE6" stroke="#2A1B3D" stroke-width="2.5" stroke-linejoin="round" stroke-linecap="round"/><path d="M15 128 l3 -9 l2 9 l3 -11 l2 11" fill="none" stroke="#3355B8" stroke-width="2.5" stroke-linecap="round"/><path d="M65 138 l3 -9 l2 9 l3 -11 l2 11" fill="none" stroke="#3355B8" stroke-width="2.5" stroke-linecap="round"/><path d="M145 130 l3 -9 l2 9 l3 -11 l2 11" fill="none" stroke="#3355B8" stroke-width="2.5" stroke-linecap="round"/><path d="M180 142 l3 -9 l2 9 l3 -11 l2 11" fill="none" stroke="#3355B8" stroke-width="2.5" stroke-linecap="round"/><ellipse cx="100" cy="132" rx="60" ry="13.2" fill="#2A1B3D" opacity="0.2"/><path d="M40 120 L40 60 Q70 50 100 64 Q130 50 160 60 V120 Q130 110 100 124 Q70 110 40 120Z" fill="#FFFFFF" stroke="#2A1B3D" stroke-width="4" stroke-linejoin="round" stroke-linecap="round"/><path d="M100 64 V124" fill="none" stroke="#2A1B3D" stroke-width="4" stroke-linejoin="round" stroke-linecap="round"/><path d="M52 74 h36 M52 86 h36 M52 98 h28 M112 74 h36 M112 86 h36" fill="none" stroke="#2A1B3D" stroke-width="2.5" stroke-linejoin="round" stroke-linecap="round"/><path d="M100 24 Q102.16 33.84 112 36 Q102.16 38.16 100 48 Q97.84 38.16 88 36 Q97.84 33.84 100 24Z" fill="#FFE066" stroke="#2A1B3D" stroke-width="2.5" stroke-linejoin="round" stroke-linecap="round"/><path d="M60 33 Q61.26 38.74 67 40 Q61.26 41.26 60 47 Q58.74 41.26 53 40 Q58.74 38.74 60 33Z" fill="#FFFFFF" stroke="#2A1B3D" stroke-width="2.5" stroke-linejoin="round" stroke-linecap="round"/><path d="M144 33 Q145.26 38.74 151 40 Q145.26 41.26 144 47 Q142.74 41.26 137 40 Q142.74 38.74 144 33Z" fill="#9B7BEA" stroke="#2A1B3D" stroke-width="2.5" stroke-linejoin="round" stroke-linecap="round"/></g></svg>
