<svg xmlns="http://www.w3.org/2000/svg" viewBox="0 0 200 150" width="400" height="300"><defs><clipPath id="c"><rect width="200" height="150"/></clipPath></defs><g clip-path="url(#c)"><rect width="200" height="150" fill="#C9D79A"/><path d="M-10 92 Q50 84 100 94 T210 90 V160 H-10Z" fill="#8FAE55" stroke="#2A1B3D" stroke-width="2.5" stroke-linejoin="round" stroke-linecap="round"/><path d="M-10 112 Q60 104 110 114 T210 110 V160 H-10Z" fill="#667F33" stroke="#2A1B3D" stroke-width="2.5" stroke-linejoin="round" stroke-linecap="round"/><ellipse cx="40" cy="128" rx="16" ry="5" fill="#86A845" stroke="#2A1B3D" stroke-width="2.5" stroke-linejoin="round" stroke-linecap="round"/><ellipse cx="165" cy="136" rx="13" ry="4" fill="#86A845" stroke="#2A1B3D" stroke-width="2.5" stroke-linejoin="round" stroke-linecap="round"/><circle cx="120" cy="70" r="4" fill="#E6F2C2" stroke="#2A1B3D" stroke-width="2.5" stroke-linejoin="round" stroke-linecap="round"/><circle cx="130" cy="58" r="3" fill="#E6F2C2" stroke="#2A1B3D" stroke-width="2.5" stroke-linejoin="round" stroke-linecap="round"/><circle cx="24" cy="60" r="3" fill="#E6F2C2" stroke="#2A1B3D" stroke-width="2.5" stroke-linejoin="round" stroke-linecap="round"/><path d="M178 92 V50 M178 58 q-8 -4 -12 -12 M178 66 q8 -3 12 -10" fill="none" stroke="#4B6224" stroke-width="3" stroke-linecap="round"/><ellipse cx="100" cy="142" rx="40" ry="8.8" fill="#2A1B3D" opacity="0.2"/><rect x="76" y="40" width="48" height="100" rx="10" fill="#6B8F3A" stroke="#2A1B3D" stroke-width="4" stroke-linejoin="round" stroke-linecap="round"/><rect x="70" y="32" width="60" height="16" rx="6" fill="#4B6224" stroke="#2A1B3D" stroke-width="4" stroke-linejoin="round" stroke-linecap="round"/><path d="M84 62 l10 6 M116 62 l-10 6" fill="none" stroke="#2A1B3D" stroke-width="4" stroke-linejoin="round" stroke-linecap="round"/><circle cx="90" cy="74" r="5" fill="#E6F2C2" stroke="#2A1B3D" stroke-width="2.5" stroke-linejoin="round" stroke-linecap="round"/><circle cx="110" cy="74" r="5" fill="#E6F2C2" stroke="#2A1B3D" stroke-width="2.5" stroke-linejoin="round" stroke-linecap="round"/><path d="M90 96 Q100 87 110 96" fill="none" stroke="#2A1B3D" stroke-width="2.5" stroke-linejoin="round" stroke-linecap="round"/><path d="M84 112 h32 M84 122 h32" fill="none" stroke="#4B6224" stroke-width="4"/><circle cx="150" cy="60" r="5" fill="#E6F2C2" stroke="#2A1B3D" stroke-width="2.5" stroke-linejoin="round" stroke-linecap="round"/><circle cx="46" cy="80" r="4" fill="#E6F2C2" stroke="#2A1B3D" stroke-width="2.5" stroke-linejoin="round" stroke-linecap="round"/></g></svg>
