<svg xmlns="http://www.w3.org/2000/svg" viewBox="0 0 256 256" width="256" height="256"><rect width="256" height="256" fill="#D9A866"/><circle cx="20" cy="30" r="2" fill="#B9834A" opacity="0.6"/><circle cx="80" cy="12" r="2" fill="#B9834A" opacity="0.6"/><circle cx="140" cy="60" r="2" fill="#B9834A" opacity="0.6"/><circle cx="200" cy="40" r="2" fill="#B9834A" opacity="0.6"/><circle cx="40" cy="120" r="2" fill="#B9834A" opacity="0.6"/><circle cx="110" cy="150" r="2" fill="#B9834A" opacity="0.6"/><circle cx="180" cy="130" r="2" fill="#B9834A" opacity="0.6"/><circle cx="230" cy="200" r="2" fill="#B9834A" opacity="0.6"/><circle cx="60" cy="210" r="2" fill="#B9834A" opacity="0.6"/><circle cx="150" cy="230" r="2" fill="#B9834A" opacity="0.6"/><circle cx="240" cy="100" r="2" fill="#B9834A" opacity="0.6"/><circle cx="10" cy="180" r="2" fill="#B9834A" opacity="0.6"/><path d="M0 0 H256" stroke="#C9955A" stroke-width="1" opacity="0.35"/><path d="M0 16 H256" stroke="#C9955A" stroke-width="1" opacity="0.35"/><path d="M0 32 H256" stroke="#C9955A" stroke-width="1" opacity="0.35"/><path d="M0 48 H256" stroke="#C9955A" stroke-width="1" opacity="0.35"/><path d="M0 64 H256" stroke="#C9955A" stroke-width="1" opacity="0.35"/><path d="M0 80 H256" stroke="#C9955A" stroke-width="1" opacity="0.35"/><path d="M0 96 H256" stroke="#C9955A" stroke-width="1" opacity="0.35"/><path d="M0 112 H256" stroke="#C9955A" stroke-width="1" opacity="0.35"/><path d="M0 128 H256" stroke="#C9955A" stroke-width="1" opacity="0.35"/><path d="M0 144 H256" stroke="#C9955A" stroke-width="1" opacity="0.35"/><path d="M0 160 H256" stroke="#C9955A" stroke-width="1" opacity="0.35"/><path d="M0 176 H256" stroke="#C9955A" stroke-width="1" opacity="0.35"/><path d="M0 192 H256" stroke="#C9955A" stroke-width="1" opacity="0.35"/><path d="M0 208 H256" stroke="#C9955A" stroke-width="1" opacity="0.35"/><path d="M0 224 H256" stroke="#C9955A" stroke-width="1" opacity="0.35"/><path d="M0 240 H256" stroke="#C9955A" stroke-width="1" opacity="0.35"/></svg>
